# xmcd
#
# Track frame offsets:
#	150
#	9327
#	16534
#	22066
#	30022
#	40857
#	53744
#	58629
#	67897
#	75795
#	90058
#	96496
#	101133
#	112110
#	118896
#	128040
#	136374
#	143881
#	152781
#	162053
#	169428
#	178588
#	187017
#	195342
#	208862
#	212779
#	222562
#	230890
#	242994
#	253838
#	262207
#	272285
#	281117
#	287624
#	293837
#	301530
#	310901
#	317980
#
# Disc length: 4346 seconds
#
# Revision: 1
# Processed by: cddbd v1.5.2PL0 Copyright (c) Steve Scherf et al.
# Submitted via: audiograbber 1.83.01
#
DISCID=2710f826
DTITLE=The Jon Spencer Blues Explosion - Year One
DYEAR=2010
DGENRE=blues explosion
TTITLE0=Twenty Nine
TTITLE1=Typecast
TTITLE2=Water Main
TTITLE3=History Of Sex
TTITLE4=Rachel
TTITLE5=Chicken Walk
TTITLE6=Big Headed Baby
TTITLE7=Support A Man
TTITLE8=Lovin' Up A Storm
TTITLE9=Comeback
TTITLE10='78 Style
TTITLE11=Changed
TTITLE12=White Tail
TTITLE13=What To Do
TTITLE14=40 Lb. Block Of Cheese
TTITLE15=Write A Song
TTITLE16=I.E.V.
TTITLE17=Exploder
TTITLE18=What To Do (Albini)
TTITLE19=Eye To Eye
TTITLE20=Eliza Jane
TTITLE21=Maynard Ave.
TTITLE22=The Feeling Of Love
TTITLE23=The Vacuum Of Loneliness
TTITLE24=Intro A
TTITLE25=Biological
TTITLE26=Water Main (Albini)
TTITLE27=Mo' Chicken - Let's Get Funky
TTITLE28=Like A Hawk
TTITLE29=Kill A Man
TTITLE30=Twenty Nine (Albini)
TTITLE31=History Of Sex (Albini)
TTITLE32=Shirt Jac
TTITLE33=Latch On
TTITLE34=Colty
TTITLE35=Write A Song
TTITLE36=Smoke Cigarettes
TTITLE37=History Of Sex
EXTD=
EXTT0=
EXTT1=
EXTT2=
EXTT3=
EXTT4=
EXTT5=
EXTT6=
EXTT7=
EXTT8=
EXTT9=
EXTT10=
EXTT11=
EXTT12=
EXTT13=
EXTT14=
EXTT15=
EXTT16=
EXTT17=
EXTT18=
EXTT19=
EXTT20=
EXTT21=
EXTT22=
EXTT23=
EXTT24=
EXTT25=
EXTT26=
EXTT27=
EXTT28=
EXTT29=
EXTT30=
EXTT31=
EXTT32=
EXTT33=
EXTT34=
EXTT35=
EXTT36=
EXTT37=
PLAYORDER=
